<?xml version="1.0" encoding="UTF-8"?>
<svg id="Layer_1" data-name="Layer 1" xmlns="http://www.w3.org/2000/svg" viewBox="0 0 1834.87 285.39">
  <defs>
    <style>
      .cls-1 {
        fill: #f33;
      }
    </style>
  </defs>
  <g>
    <path class="cls-1" d="M811.07,197.98c-14.77,14.63-33.27,21.94-55.49,21.94-12.94,0-24.48-2.11-34.6-6.33-10.13-4.22-18.29-9.92-24.48-17.09-6.19-7.17-10.87-15.19-14.03-24.05-3.17-8.86-4.75-18.29-4.75-28.27s1.62-19.52,4.85-28.59c3.24-9.07,7.95-17.3,14.14-24.69,6.19-7.39,14.38-13.26,24.58-17.62,10.2-4.36,21.63-6.54,34.29-6.54,21.1,0,39.11,7.46,54.02,22.37l-15.83,15.19c-10.27-10.13-23-15.19-38.19-15.19-17.58,0-31.09,5.42-40.51,16.25-9.43,10.83-14.07,23.7-13.93,38.61,.14,14.91,4.78,27.61,13.93,38.09,9.14,10.48,22.65,15.72,40.51,15.72,7.03,0,14.07-1.41,21.1-4.22,7.03-2.81,13.08-6.75,18.15-11.82l16.25,16.25Z"/>
    <path d="M937.47,185.95h-79.97l-13.93,31.02h-25.11l66.25-147.7h25.74l66.25,147.7h-25.11l-14.14-31.02Zm-39.88-91.79l-31.23,70.26h62.46l-31.23-70.26Z"/>
    <path d="M1124.63,216.97h-27.64l-44.94-51.06h-31.23v51.06h-23.63V69.05c7.6,0,19.06,.04,34.39,.11,15.33,.07,26.8,.1,34.39,.1,16.32,0,29.08,4.75,38.3,14.24,9.21,9.49,13.82,20.85,13.82,34.08,0,11.68-3.27,21.77-9.81,30.28-6.54,8.51-16.63,13.75-30.28,15.72l44.1,49.16,2.53,4.22Zm-103.81-126.18v53.59h44.94c9.28,0,16.32-2.53,21.1-7.6s7.17-11.32,7.17-18.78-2.39-13.68-7.17-19.1c-4.78-5.42-11.75-8.12-20.89-8.12h-45.16Z"/>
    <path d="M1180.35,90.58h-48.53v-21.31h120.69v21.31h-48.32v126.39h-23.84V90.58Z"/>
    <path class="cls-1" d="M1362.87,101.97c-3.52-5.06-8.55-9.04-15.09-11.92-6.54-2.89-13.68-4.4-21.42-4.54-10.13,0-18.36,2-24.69,6.01-6.33,4.01-9.5,9.46-9.5,16.35,0,6.47,3.06,11.18,9.18,14.14,6.12,2.95,15.02,5.28,26.69,6.96,8.72,1.27,16.18,2.74,22.37,4.43,6.19,1.69,12.31,4.19,18.36,7.49,6.05,3.31,10.66,7.81,13.82,13.5,3.17,5.7,4.75,12.49,4.75,20.36,0,10.55-3.06,19.34-9.18,26.38-6.12,7.03-13.57,11.99-22.37,14.87-8.79,2.88-18.67,4.33-29.65,4.33-30.24,0-51.41-11.18-63.51-33.55l17.72-11.82c9.57,16.18,24.9,24.26,46,24.26,6.47,0,12.38-.7,17.72-2.11,5.34-1.41,9.95-4.05,13.82-7.91,3.87-3.87,5.8-8.69,5.8-14.45,0-7.45-3.34-12.98-10.02-16.56-6.68-3.59-15.93-6.15-27.75-7.7-6.75-.84-12.55-1.83-17.41-2.95-4.85-1.12-9.95-2.74-15.3-4.85-5.34-2.11-9.67-4.64-12.98-7.6-3.31-2.95-6.05-6.79-8.23-11.5-2.18-4.71-3.27-10.09-3.27-16.14,0-7.32,1.69-13.79,5.06-19.41,3.38-5.63,7.88-10.06,13.5-13.29,5.63-3.24,11.68-5.66,18.15-7.28,6.47-1.62,13.22-2.43,20.26-2.43,26.3,0,44.66,8.3,55.07,24.9l-17.94,12.03Z"/>
    <path d="M1437.57,171.6v45.37h-23.63V69.27c7.46,0,18.81-.04,34.08-.1,15.26-.07,26.69-.11,34.29-.11s14.56,1.16,20.89,3.48c6.33,2.32,11.53,5.45,15.61,9.39,4.08,3.94,7.56,8.48,10.44,13.61,2.88,5.14,4.64,10.52,5.27,16.14,.63,5.63,.63,11.29,0,16.98-.63,5.7-2.36,11.11-5.17,16.25-2.81,5.13-6.29,9.67-10.44,13.61-4.15,3.94-9.39,7.1-15.72,9.5-6.33,2.39-13.29,3.59-20.89,3.59h-44.73Zm0-21.73h44.73c6.19,0,11.57-1.44,16.14-4.33,4.57-2.88,7.88-6.54,9.92-10.97,2.04-4.43,3.06-9.18,3.06-14.24s-1.02-9.81-3.06-14.24c-2.04-4.43-5.35-8.09-9.92-10.97s-9.95-4.33-16.14-4.33h-44.73v59.08Z"/>
    <path d="M1682.13,89.21c13.08,14.98,19.62,33.16,19.62,54.54,0,10.13-1.58,19.73-4.75,28.8-3.17,9.07-7.74,17.2-13.71,24.37-5.98,7.17-13.89,12.84-23.74,16.99-9.85,4.15-20.96,6.22-33.34,6.22s-23.49-2.15-33.34-6.44c-9.85-4.29-17.76-10.02-23.74-17.2-5.98-7.17-10.55-15.23-13.71-24.16-3.17-8.93-4.75-18.39-4.75-28.38,0-22.51,7.1-41.04,21.31-55.6,14.21-14.56,32.42-21.84,54.65-21.84,23.91,.14,42.41,7.7,55.49,22.68Zm-104.76,74.49c2.04,6.26,5.1,12.03,9.18,17.3,4.08,5.27,9.53,9.49,16.35,12.66,6.82,3.17,14.59,4.75,23.32,4.75,17.3,0,30.31-5.17,39.04-15.51,8.72-10.34,13.08-23.25,13.08-38.72,0-9.57-1.72-18.43-5.17-26.59-3.45-8.16-9.21-15.09-17.3-20.78-8.09-5.7-17.83-8.62-29.22-8.76-16.6,0-29.51,5.2-38.72,15.61-9.21,10.41-13.82,23.91-13.82,40.51,.14,6.75,1.23,13.26,3.27,19.52Z"/>
    <path d="M1759.58,90.58h-48.53v-21.31h120.69v21.31h-48.32v126.39h-23.84V90.58Z"/>
  </g>
  <g>
    <path d="M198.56,5.1H105.6c-14.54,0-28.47,2.95-41.11,8.3-18.97,8.03-35.06,21.4-46.45,38.24-5.69,8.42-10.2,17.72-13.29,27.66C1.66,89.23,0,99.8,0,110.7c0,14.54,2.95,28.47,8.31,41.11,8.03,18.97,21.4,35.06,38.24,46.45,8.42,5.69,17.72,10.2,27.66,13.29,9.93,3.09,20.5,4.75,31.4,4.75h158.78l42.99-178.13h164.73V6.08h-190s-42.99,178.13-42.99,178.13h-70.91s-62.6,0-62.6,0c-10.19,0-19.82-2.06-28.61-5.77-13.17-5.57-24.43-14.91-32.35-26.65-3.96-5.87-7.1-12.33-9.24-19.22-2.14-6.89-3.3-14.22-3.3-21.86,0-10.19,2.06-19.82,5.77-28.61,5.57-13.17,14.91-24.43,26.65-32.35,5.87-3.96,12.33-7.1,19.22-9.24,6.89-2.14,14.22-3.3,21.86-3.3h92.96V5.1h0Z"/>
    <circle class="cls-1" cx="116.07" cy="254.46" r="25.84" transform="translate(-61.42 38.32) rotate(-14.87)"/>
    <circle class="cls-1" cx="220.17" cy="254.46" r="25.84" transform="translate(-57.93 65.03) rotate(-14.87)"/>
    <path class="cls-1" d="M92.01,102.99c6.36,11.84,15.77,21.75,27.19,28.72,11.42,6.98,24.92,11.01,39.24,11,14.31,0,27.82-4.02,39.24-11,11.43-6.98,20.83-16.88,27.19-28.72l-28.27-15.19c-3.64,6.78-9.08,12.51-15.64,16.52-6.57,4-14.21,6.3-22.52,6.3-8.31,0-15.94-2.3-22.52-6.3-6.56-4-12-9.73-15.64-16.52l-28.27,15.19h0Z"/>
    <polygon class="cls-1" points="574.2 93.18 565.74 128.22 410.62 128.22 419.08 93.18 574.2 93.18"/>
    <polygon class="cls-1" points="462.41 181.26 453.96 216.3 317.04 216.3 325.5 181.26 462.41 181.26"/>
  </g>
</svg>